<svg id="Layer_1" data-name="Layer 1" xmlns="http://www.w3.org/2000/svg" viewBox="0 0 841.89 595.27"><defs><style>.cls-1{fill:#fff;}.cls-2{fill:#e01e5a;}.cls-3{fill:#36c5f0;}.cls-4{fill:#ecb22e;}.cls-5{fill:#2eb67d;}.cls-6{opacity:0.51;}</style></defs><path class="cls-1" d="M355.07,239.65l-12.3-20.43a5.12,5.12,0,0,1-.85-2.63c0-3.42,3.12-4.59,5.07-4.59,2.39,0,3.49,1,4.53,2.94L360.27,231,369,214.94c1.16-2.2,2.26-2.94,4.34-2.94,1.83,0,4.95,1.17,4.95,4.59a5.12,5.12,0,0,1-.85,2.63l-12.3,20.43v13a5,5,0,1,1-10,0Z"/><path class="cls-1" d="M393,224.06c10.76,0,16.51,7.34,16.51,16.76,0,8.93-4.34,16.82-16.51,16.82s-16.52-7.89-16.52-16.82C376.48,231.4,382.23,224.06,393,224.06Zm0,27c5.32,0,7.58-4.77,7.58-10.21,0-5.81-2.38-10.16-7.58-10.16s-7.59,4.35-7.59,10.16C385.41,246.26,387.67,251,393,251Z"/><path class="cls-1" d="M445.54,253.17c0,2.7-1.22,4.47-4,4.47s-4-1.77-4-4.47V252h-.12c-2.51,3.3-5.75,5.63-10.83,5.63-5.39,0-11.26-2.69-11.26-11.75V228.52c0-2.38,1-4.46,4.47-4.46s4.46,2.08,4.46,4.46v15.6c0,3.61,1.78,6.18,5.63,6.18a6.94,6.94,0,0,0,6.79-7V228.52c0-2.38,1-4.46,4.47-4.46s4.46,2.08,4.46,4.46Z"/><path class="cls-1" d="M452.64,228.52c0-2.69,1.22-4.46,4-4.46s4,1.77,4,4.46v1.16h.12c2.51-3.3,5.75-5.62,10.83-5.62,5.38,0,11.26,2.69,11.26,11.74v17.37c0,2.39-1,4.47-4.47,4.47s-4.46-2.08-4.46-4.47v-15.6c0-3.6-1.78-6.17-5.63-6.17a6.93,6.93,0,0,0-6.79,7v14.74c0,2.39-1,4.47-4.47,4.47s-4.46-2.08-4.46-4.47Z"/><path class="cls-1" d="M520.29,254.21c0,10.77-6.6,15.72-15.9,15.72-6.79,0-13.46-3.05-13.46-7.4a3.71,3.71,0,0,1,3.67-3.79c3.73,0,4.47,4.59,9.48,4.59,5.45,0,7.65-2.75,7.65-9.79v-1.83h-.12A11,11,0,0,1,503,256c-9.42,0-14.31-6.12-14.31-14.93,0-11.56,6.48-17,14-17,4.35,0,7.77,2,9.42,5.32h.13v-1.1c0-2.76,1.4-4.22,4-4.22s4,1.46,4,4.22Zm-15.6-4.83c4,0,7-2.63,7-9s-2.45-9.36-6.61-9.36c-5.75,0-7.52,4.22-7.52,9.73C497.6,244.85,499.62,249.38,504.69,249.38Z"/><path class="cls-1" d="M568.31,254.15c-1,2.88-3,3.49-6.12,3.49s-5.08-.61-6.11-3.49l-12.36-34.74a8.65,8.65,0,0,1-.61-2.94c0-3.36,2.57-4.47,5.07-4.47,2.7,0,4.16,1.41,5.08,4.41l9.06,30h.12l9.42-30c.91-3,2.38-4.41,4.71-4.41,2.51,0,5.08,1.11,5.08,4.47a8.69,8.69,0,0,1-.62,2.94Z"/><path class="cls-1" d="M597.86,224.06c10.76,0,16.51,7.34,16.51,16.76,0,8.93-4.34,16.82-16.51,16.82s-16.52-7.89-16.52-16.82C581.34,231.4,587.09,224.06,597.86,224.06Zm0,27c5.32,0,7.58-4.77,7.58-10.21,0-5.81-2.38-10.16-7.58-10.16s-7.59,4.35-7.59,10.16C590.27,246.26,592.53,251,597.86,251Z"/><path class="cls-1" d="M625.08,211.76a4.65,4.65,0,1,1-4.65,4.65A4.65,4.65,0,0,1,625.08,211.76Zm-4.47,16.76c0-2.38,1-4.46,4.47-4.46s4.46,2.08,4.46,4.46v24.65c0,2.39-1,4.47-4.46,4.47s-4.47-2.08-4.47-4.47Z"/><path class="cls-1" d="M652.18,224.06c7.46,0,13,4.22,13,8.38,0,2.57-1.9,3.85-4.16,3.85-4.23,0-2.7-5.26-9.12-5.26-3.49,0-7.58,2.38-7.58,10.46,0,5.57,2.63,9.18,7.52,9.18,6.24,0,4.89-5.76,9.6-5.76a3.55,3.55,0,0,1,3.74,3.43c0,3.92-4.41,9.3-13.58,9.3-11,0-16.22-6.79-16.22-16.15C635.41,231.21,641.23,224.06,652.18,224.06Z"/><path class="cls-1" d="M677.56,242.53c0,4.71,3.06,8.14,8.26,8.14,6.73,0,6.73-4.41,10.34-4.41a3.69,3.69,0,0,1,3.67,3.49c0,5.38-8.63,7.89-14,7.89-12.48,0-17.19-8.44-17.19-16.21,0-10.4,6.3-17.37,16.88-17.37,10.28,0,16.15,7.27,16.15,14.62,0,3-.92,3.85-3.91,3.85Zm15.66-5.14c-.49-4.1-3.55-7.1-7.52-7.1-4.47,0-7.16,2.76-8.14,7.1Z"/><path class="cls-1" d="M719.4,224.06c6.79,0,13.64,2.69,13.64,6.79a3.7,3.7,0,0,1-3.73,3.91c-3.49,0-3.61-4.1-9.24-4.1-3.12,0-5.13.86-5.13,2.75,0,2.08,2,2.57,4.77,3.19l3.73.85c5.08,1.16,11.13,3.31,11.13,9.55,0,7.27-7,10.64-13.76,10.64-8.08,0-14.81-3.61-14.81-8a3.44,3.44,0,0,1,3.61-3.74c3.86,0,4.22,5.51,10.83,5.51,3.18,0,5.2-1.41,5.2-3.24,0-2.27-2-2.63-5.14-3.43l-5.26-1.28C710,242.16,706,240,706,234,706,226.75,713.22,224.06,719.4,224.06Z"/><path class="cls-1" d="M360.09,297.46c10.76,0,16.51,7.34,16.51,16.76,0,8.93-4.34,16.82-16.51,16.82s-16.52-7.89-16.52-16.82C343.57,304.8,349.32,297.46,360.09,297.46Zm0,27c5.32,0,7.58-4.78,7.58-10.22,0-5.81-2.38-10.15-7.58-10.15s-7.59,4.34-7.59,10.15C352.5,319.66,354.76,324.44,360.09,324.44Z"/><path class="cls-1" d="M385.17,304.13h-2c-2.51,0-3.55-1-3.55-2.94s1-2.94,3.55-2.94h2v-4.46c0-5.63,4.64-8.63,9.84-8.63,3.25,0,5.88,1.29,5.88,4.29A3,3,0,0,1,398,292.5c-.67,0-1.28-.18-2-.18a1.86,1.86,0,0,0-1.95,2.08v3.85h2.75c2.63,0,4,.8,4,2.94s-1.41,2.94-4,2.94H394.1v22.45c0,2.93-1.78,4.46-4.47,4.46a4.08,4.08,0,0,1-4.46-4.46Z"/><path class="cls-1" d="M435.57,294.65h-9.48c-2.88,0-5.2-1.47-5.2-4.23s2.32-4.22,5.2-4.22h29c2.88,0,5.2,1.47,5.2,4.22s-2.32,4.23-5.2,4.23H445.6V326a5,5,0,0,1-10,0Z"/><path class="cls-1" d="M486.59,321.62c0,3.73.91,4.59.91,6,0,2-1.89,3.42-4,3.42-3.86,0-5.14-2.44-5.26-5.2A15.38,15.38,0,0,1,466,331c-5.08,0-10.09-3.48-10.09-9.11,0-7.4,5.63-9.48,12.48-10.28l5.44-.61c2.14-.25,3.85-.73,3.85-3.3s-2.63-3.67-5.62-3.67c-6.61,0-6.79,4.89-10.34,4.89a3.55,3.55,0,0,1-3.79-3.43c0-3.54,5-8.07,14.19-8.07,8.56,0,14.5,2.75,14.5,9.18Zm-8.94-6.42c-1,.92-2.81,1.22-3.85,1.41l-3.24.49c-3.73.55-5.75,1.71-5.75,4.4,0,2,1.9,3.67,4.95,3.67,4.9,0,7.89-3.18,7.89-6.48Z"/><path class="cls-1" d="M494.78,289.87c0-2.93,1.78-4.46,4.47-4.46a4.08,4.08,0,0,1,4.46,4.46v36.71a4.08,4.08,0,0,1-4.46,4.46c-2.69,0-4.47-1.53-4.47-4.46Z"/><path class="cls-1" d="M518.88,315.93c0,4.71,3.06,8.14,8.26,8.14,6.73,0,6.73-4.41,10.34-4.41a3.69,3.69,0,0,1,3.67,3.49c0,5.38-8.63,7.89-14,7.89C514.66,331,510,322.6,510,314.83c0-10.4,6.3-17.37,16.89-17.37,10.27,0,16.15,7.28,16.15,14.62,0,3.06-.92,3.85-3.92,3.85Zm15.66-5.14c-.49-4.09-3.54-7.09-7.52-7.09-4.47,0-7.16,2.75-8.14,7.09Z"/><path class="cls-1" d="M548.73,301.93c0-2.7,1.23-4.47,4-4.47s4,1.77,4,4.47v1.16h.12c2.51-3.31,5.75-5.63,10.83-5.63,5.38,0,11.26,2.69,11.26,11.74v17.38c0,2.38-1,4.46-4.47,4.46s-4.47-2.08-4.47-4.46V311c0-3.61-1.77-6.18-5.62-6.18a6.93,6.93,0,0,0-6.79,7v14.75c0,2.38-1,4.46-4.47,4.46s-4.47-2.08-4.47-4.46Z"/><path class="cls-1" d="M588.44,304.13H586.9c-2.5,0-3.54-1-3.54-2.94s1-2.94,3.54-2.94h1.54v-5.44a4.47,4.47,0,1,1,8.93,0v5.44h2.69c2.63,0,4,.8,4,2.94s-1.41,2.94-4,2.94h-2.69V322c0,1.35.73,2.08,2.32,2.08H601a2.8,2.8,0,0,1,3.12,3c0,2.57-2.21,4-6.49,4-6.48,0-9.17-2.69-9.17-8Z"/><path class="cls-1" d="M346.86,360.86a1.51,1.51,0,0,1,.21.79,1.79,1.79,0,0,1-.5,1.28,1.65,1.65,0,0,1-1.21.51,1.55,1.55,0,0,1-1.12-.44,1.51,1.51,0,0,1-.45-1.13,2,2,0,0,1,.12-.69,7,7,0,0,1,.44-.9l2.06-3.67H348l-1.64,3.7A1.45,1.45,0,0,1,346.86,360.86Zm4.62,0a1.51,1.51,0,0,1,.21.79,1.79,1.79,0,0,1-.5,1.28,1.63,1.63,0,0,1-1.21.51,1.54,1.54,0,0,1-1.11-.44,1.48,1.48,0,0,1-.46-1.13,1.8,1.8,0,0,1,.13-.69,5.9,5.9,0,0,1,.44-.9l2-3.67h1.54l-1.64,3.7A1.39,1.39,0,0,1,351.48,360.86Z"/><path class="cls-1" d="M360.84,368.92l-1.17,5.85h-2.45l1.2-6-4.53-11.13h2.4l3.7,9.08,7.31-9.08h2.6Z"/><path class="cls-1" d="M370,374.22a5.08,5.08,0,0,1-2.13-2,5.6,5.6,0,0,1-.76-2.94,7.85,7.85,0,0,1,1-3.91,7.07,7.07,0,0,1,2.72-2.73,7.73,7.73,0,0,1,3.91-1,7.22,7.22,0,0,1,3.21.68,5,5,0,0,1,2.11,1.95,5.65,5.65,0,0,1,.75,2.95,7.89,7.89,0,0,1-1,3.92,7,7,0,0,1-2.7,2.74,7.73,7.73,0,0,1-3.91,1A7,7,0,0,1,370,374.22Zm6-2.06a4.84,4.84,0,0,0,1.81-1.94,6.09,6.09,0,0,0,.64-2.84,3.52,3.52,0,0,0-1-2.69,4,4,0,0,0-2.86-1,4.87,4.87,0,0,0-4.41,2.65,5.94,5.94,0,0,0-.66,2.83,3.5,3.5,0,0,0,1,2.68,4,4,0,0,0,2.85,1A5,5,0,0,0,376,372.16Z"/><path class="cls-1" d="M397.35,361.8l-2.57,13h-2.25l.32-1.67a5.61,5.61,0,0,1-2.07,1.36,7.21,7.21,0,0,1-2.58.45,4.84,4.84,0,0,1-3.4-1.14,4.13,4.13,0,0,1-1.25-3.21,8.09,8.09,0,0,1,.15-1.49l1.44-7.27h2.35L386,369.09a6.39,6.39,0,0,0-.12,1.1,2.49,2.49,0,0,0,.75,1.95,3.19,3.19,0,0,0,2.21.67,4.64,4.64,0,0,0,3.1-1.05,5.32,5.32,0,0,0,1.65-3.08L395,361.8Z"/><path class="cls-1" d="M405.81,362.17a8.31,8.31,0,0,1,3-.49l-.44,2.27-.61,0q-4.05,0-4.9,4.35l-1.29,6.49h-2.35l2.57-13h2.25l-.37,1.93A5,5,0,0,1,405.81,362.17Z"/><path class="cls-1" d="M422.57,359.77h-5.84l.41-2.13h14.17l-.44,2.13H425l-3,15h-2.42Z"/><path class="cls-1" d="M443.67,361.8l-2.57,13h-2.25l.31-1.59a6.14,6.14,0,0,1-2,1.28,6.94,6.94,0,0,1-2.53.45,6.3,6.3,0,0,1-3-.67,4.93,4.93,0,0,1-2-1.94,5.89,5.89,0,0,1-.74-3,8,8,0,0,1,1-3.94,6.86,6.86,0,0,1,2.63-2.71,7.24,7.24,0,0,1,3.75-1,6.25,6.25,0,0,1,2.85.59,4.14,4.14,0,0,1,1.83,1.73l.44-2.2Zm-6,10.36a4.78,4.78,0,0,0,1.81-1.94,6.1,6.1,0,0,0,.65-2.84,3.52,3.52,0,0,0-1-2.69,4,4,0,0,0-2.86-1,5,5,0,0,0-2.59.7,4.81,4.81,0,0,0-1.81,1.95,5.94,5.94,0,0,0-.66,2.83,3.53,3.53,0,0,0,1,2.68,4,4,0,0,0,2.85,1A4.93,4.93,0,0,0,437.71,372.16Z"/><path class="cls-1" d="M449.2,356.61h2.35l-3.63,18.16h-2.35Z"/><path class="cls-1" d="M454.68,369v.14a3.58,3.58,0,0,0,1,2.76,4.45,4.45,0,0,0,3.09.94,6.2,6.2,0,0,0,2.25-.4,5.26,5.26,0,0,0,1.76-1.09l1,1.69a6.83,6.83,0,0,1-2.32,1.37,8.68,8.68,0,0,1-2.89.48,7.37,7.37,0,0,1-3.3-.68,5,5,0,0,1-2.15-2,5.67,5.67,0,0,1-.76-3,8.09,8.09,0,0,1,.94-3.92,6.83,6.83,0,0,1,2.62-2.71,7.21,7.21,0,0,1,3.75-1,5.87,5.87,0,0,1,4.22,1.5,5.38,5.38,0,0,1,1.58,4.1,10.4,10.4,0,0,1-.17,1.74Zm1.93-4.41a4.9,4.9,0,0,0-1.69,2.7h8.37a3.31,3.31,0,0,0-.92-2.71,3.88,3.88,0,0,0-2.78-1A4.7,4.7,0,0,0,456.61,364.61Z"/><path class="cls-1" d="M480,362.8a4.06,4.06,0,0,1,1.24,3.18,8.31,8.31,0,0,1-.15,1.52l-1.44,7.27h-2.35l1.44-7.27a6.46,6.46,0,0,0,.13-1.08,2.51,2.51,0,0,0-.76-1.95,3.26,3.26,0,0,0-2.25-.69,4.75,4.75,0,0,0-3.15,1,5.32,5.32,0,0,0-1.65,3.1l-1.37,6.85h-2.35l2.57-13h2.25l-.32,1.66a6.31,6.31,0,0,1,4.7-1.78A4.93,4.93,0,0,1,480,362.8Z"/><path class="cls-1" d="M487.49,370.63a3.51,3.51,0,0,0-.07.69,1.62,1.62,0,0,0,.42,1.2,1.83,1.83,0,0,0,1.29.41,3.07,3.07,0,0,0,1.86-.61l.49,1.79a5.21,5.21,0,0,1-3,.8,3.53,3.53,0,0,1-2.49-.86,3.12,3.12,0,0,1-.94-2.39,4.46,4.46,0,0,1,.1-1l1.39-6.95h-2.2l.37-1.93h2.23l.56-2.84h2.35l-.57,2.84H493l-.39,1.93h-3.72Z"/><path class="cls-1" d="M505,374.06a6.49,6.49,0,0,1-2.77-2.53,7.42,7.42,0,0,1-.95-3.78,10.58,10.58,0,0,1,1.3-5.22,9.66,9.66,0,0,1,3.65-3.72,10.71,10.71,0,0,1,5.45-1.37,9.69,9.69,0,0,1,4.34.91,6.46,6.46,0,0,1,2.78,2.53,7.32,7.32,0,0,1,1,3.78,10.62,10.62,0,0,1-1.29,5.21,9.58,9.58,0,0,1-3.67,3.72,10.67,10.67,0,0,1-5.46,1.37A9.64,9.64,0,0,1,505,374.06Zm8.61-2.35a7.3,7.3,0,0,0,2.72-2.9,8.55,8.55,0,0,0,1-4,4.94,4.94,0,0,0-1.5-3.78,6.07,6.07,0,0,0-4.3-1.41,7.63,7.63,0,0,0-4.06,1.08,7.49,7.49,0,0,0-2.73,2.91,8.46,8.46,0,0,0-1,4,4.91,4.91,0,0,0,1.51,3.78,6.11,6.11,0,0,0,4.31,1.41A7.6,7.6,0,0,0,513.57,371.71Z"/><path class="cls-1" d="M535.94,361.8l-2.57,13h-2.25l.31-1.67a5.49,5.49,0,0,1-2.06,1.36,7.21,7.21,0,0,1-2.58.45,4.88,4.88,0,0,1-3.41-1.14,4.16,4.16,0,0,1-1.24-3.21,9,9,0,0,1,.14-1.49l1.45-7.27h2.35l-1.45,7.29a6.39,6.39,0,0,0-.12,1.1,2.49,2.49,0,0,0,.75,1.95,3.18,3.18,0,0,0,2.21.67,4.64,4.64,0,0,0,3.1-1.05,5.32,5.32,0,0,0,1.65-3.08l1.37-6.88Z"/><path class="cls-1" d="M544.4,362.17a8.24,8.24,0,0,1,3-.49L547,364l-.62,0q-4,0-4.89,4.35l-1.3,6.49h-2.35l2.57-13h2.25l-.36,1.93A5,5,0,0,1,544.4,362.17Z"/><path class="cls-1" d="M568.5,361.8l-8.24,13h-2.4l-3.11-13h2.35l2.42,10.4,6.61-10.4Z"/><path class="cls-1" d="M570.63,374.22a5.2,5.2,0,0,1-2.13-2,5.69,5.69,0,0,1-.76-2.94,7.85,7.85,0,0,1,1-3.91,7.13,7.13,0,0,1,2.72-2.73,7.76,7.76,0,0,1,3.91-1,7.16,7.16,0,0,1,3.21.68,5.07,5.07,0,0,1,2.12,1.95,5.74,5.74,0,0,1,.74,2.95,7.79,7.79,0,0,1-1,3.92,7,7,0,0,1-2.7,2.74,7.69,7.69,0,0,1-3.9,1A7.06,7.06,0,0,1,570.63,374.22Zm6-2.06a4.78,4.78,0,0,0,1.81-1.94,6.1,6.1,0,0,0,.65-2.84,3.55,3.55,0,0,0-1-2.69,4,4,0,0,0-2.87-1,5,5,0,0,0-2.59.7,4.81,4.81,0,0,0-1.81,1.95,5.94,5.94,0,0,0-.66,2.83,3.53,3.53,0,0,0,1,2.68,4,4,0,0,0,2.85,1A4.91,4.91,0,0,0,576.59,372.16Z"/><path class="cls-1" d="M585.88,361.8h2.34l-2.57,13h-2.34Zm.8-2.91a1.39,1.39,0,0,1-.41-1,1.62,1.62,0,0,1,.47-1.17,1.65,1.65,0,0,1,1.22-.47,1.49,1.49,0,0,1,1.06.4,1.27,1.27,0,0,1,.43,1,1.63,1.63,0,0,1-.48,1.22,1.7,1.7,0,0,1-1.24.46A1.42,1.42,0,0,1,586.68,358.89Z"/><path class="cls-1" d="M593,374.22a5.11,5.11,0,0,1-2.15-2,5.56,5.56,0,0,1-.76-2.95,7.75,7.75,0,0,1,1-3.91,7,7,0,0,1,2.71-2.73,7.82,7.82,0,0,1,3.94-1q3.84,0,5.34,2.81l-2,1.1a3.68,3.68,0,0,0-3.52-1.86,5,5,0,0,0-2.6.7,4.79,4.79,0,0,0-1.83,1.95,5.94,5.94,0,0,0-.66,2.83,3.5,3.5,0,0,0,1,2.68,4,4,0,0,0,2.87,1,5.22,5.22,0,0,0,2.19-.47,4.07,4.07,0,0,0,1.68-1.37l1.71,1.23a6.2,6.2,0,0,1-2.42,2,7.64,7.64,0,0,1-3.26.7A7.23,7.23,0,0,1,593,374.22Z"/><path class="cls-1" d="M606.18,369v.14a3.58,3.58,0,0,0,1,2.76,4.42,4.42,0,0,0,3.08.94,6.29,6.29,0,0,0,2.26-.4,5.36,5.36,0,0,0,1.76-1.09l1,1.69a6.92,6.92,0,0,1-2.32,1.37,8.72,8.72,0,0,1-2.89.48,7.37,7.37,0,0,1-3.3-.68,5.07,5.07,0,0,1-2.16-2,5.76,5.76,0,0,1-.76-3,8.09,8.09,0,0,1,1-3.92,6.81,6.81,0,0,1,2.61-2.71,7.25,7.25,0,0,1,3.76-1,5.87,5.87,0,0,1,4.22,1.5,5.42,5.42,0,0,1,1.58,4.1,10.4,10.4,0,0,1-.17,1.74Zm1.94-4.41a4.79,4.79,0,0,0-1.69,2.7h8.37a3.31,3.31,0,0,0-.92-2.71,3.88,3.88,0,0,0-2.78-1A4.68,4.68,0,0,0,608.12,364.61Z"/><path class="cls-1" d="M623.85,356.91a1.53,1.53,0,0,1,.44,1.12,2.09,2.09,0,0,1-.12.72,6.47,6.47,0,0,1-.42.87l-2,3.67h-1.55l1.64-3.67a1.42,1.42,0,0,1-.57-.57,1.74,1.74,0,0,1,1.53-2.58A1.46,1.46,0,0,1,623.85,356.91Zm4.62,0a1.49,1.49,0,0,1,.44,1.12,2.09,2.09,0,0,1-.12.72,7.61,7.61,0,0,1-.41.87l-2.06,3.67h-1.54l1.64-3.67a1.39,1.39,0,0,1-.58-.57,1.81,1.81,0,0,1-.2-.82,1.68,1.68,0,0,1,.51-1.26,1.66,1.66,0,0,1,1.22-.5A1.46,1.46,0,0,1,628.47,356.91Z"/><path class="cls-2" d="M116.29,297.64c0,1.93.08,3.84.22,5.72H81.86a5.6,5.6,0,0,1-5.61-5.58,1,1,0,0,1,0-.28,5.6,5.6,0,0,1,5.61-5.59h34.65c-.14,1.89-.22,3.8-.22,5.73Z"/><path class="cls-2" d="M304.79,297.5v.28a5.61,5.61,0,0,1-5.62,5.58H264.52c.14-1.88.22-3.79.22-5.72h0c0-1.93-.08-3.84-.22-5.73h34.65A5.62,5.62,0,0,1,304.79,297.5Z"/><path class="cls-3" d="M196.24,371.64v34.65a5.62,5.62,0,0,1-5.58,5.62h-.28a5.62,5.62,0,0,1-5.59-5.62V371.64c1.89.15,3.8.22,5.72.22S194.35,371.79,196.24,371.64Z"/><path class="cls-3" d="M196.24,189v34.64q-2.84-.21-5.73-.21c-1.92,0-3.83.07-5.72.21V189a5.61,5.61,0,0,1,5.59-5.62h.28A5.61,5.61,0,0,1,196.24,189Z"/><path class="cls-4" d="M271.42,378.34l-.11.1-.09.1a5.6,5.6,0,0,1-7.92,0L238.79,354q2.18-1.86,4.21-3.89t3.89-4.2l24.5,24.5A5.6,5.6,0,0,1,271.42,378.34Z"/><path class="cls-4" d="M142.24,241.26q-2.19,1.88-4.21,3.9t-3.89,4.2l-24.5-24.5a5.61,5.61,0,0,1,0-7.92l.11-.1.1-.1a5.59,5.59,0,0,1,7.91,0Z"/><path class="cls-5" d="M142.24,354l-24.51,24.5a5.59,5.59,0,0,1-7.91,0l-.1-.1-.11-.1a5.61,5.61,0,0,1,0-7.92l24.5-24.5q1.86,2.18,3.89,4.2T142.24,354Z"/><path class="cls-5" d="M271.39,224.86l-24.5,24.5q-1.86-2.18-3.89-4.2t-4.21-3.9l24.51-24.5a5.6,5.6,0,0,1,7.92,0l.09.1.11.1A5.6,5.6,0,0,1,271.39,224.86Z"/><path class="cls-1" d="M248.53,285.74a6.94,6.94,0,0,0-4.51-4l-14.59-4.33.66-2.23a7.11,7.11,0,0,0-.74-5.7,8.82,8.82,0,0,0-5-3.87,8.49,8.49,0,0,0-4.66-.07.35.35,0,0,1-.45-.37,6.9,6.9,0,0,0-1-4.13,8.7,8.7,0,0,0-5-3.86h0a8.59,8.59,0,0,0-3.82-.25.35.35,0,0,1-.41-.39,7,7,0,0,0-1-4.52,8.84,8.84,0,0,0-5-3.86,8.46,8.46,0,0,0-5.54.22,7,7,0,0,0-3.79,3.87.35.35,0,0,1-.59.09,8.57,8.57,0,0,0-4.3-2.86h0a8.31,8.31,0,0,0-5.94.4,7,7,0,0,0-3.62,4.25c-.52,1.69-1.42,4.63-2.34,7.66-.32,1-.64,2.08-1,3.1,0,.13-.08.28-.13.43-.54,1.81-1,3.49-1.4,4.74-.24.83-.43,1.5-.53,2.05h0l-.92,1.41L171,276.29l-.12.46-6.17,24.48.21.54a31.09,31.09,0,0,1,0,18.42,7.27,7.27,0,0,0,.72,5.88c3.49,6.11,14.91,9.2,16.65,9.66h0c.26.1.92.32,1.86.6,3.82,1.13,12.31,3.14,17.53.42a7.93,7.93,0,0,0,4.14-5.16c2.4-8.95,12.23-17.32,12.32-17.41l.42-.35,6.26-21.05L239.2,297a7.1,7.1,0,0,0,5.68-.71,8.74,8.74,0,0,0,3.87-5.06A8.24,8.24,0,0,0,248.53,285.74Zm-41.42-22.82a3.34,3.34,0,0,1,1.89-2.14,4.62,4.62,0,0,1,3.1-.1,4.89,4.89,0,0,1,2.93,2.26,3.3,3.3,0,0,1,.35,2.71l-3.12,10.49-2.47,8.32-.59,2a3.44,3.44,0,0,1-.84,1.43,2.93,2.93,0,0,1-1,.71,4.65,4.65,0,0,1-3.11.11h0a5,5,0,0,1-2.91-2.25,3,3,0,0,1-.34-.76,3.14,3.14,0,0,1-.13-.68.34.34,0,0,1,.13-.3,13.22,13.22,0,0,0,2.1-2.26,22.56,22.56,0,0,0,3.42-7.23l.19-.76.15-.62a.35.35,0,0,0-.23-.42l-2-.6a.36.36,0,0,1-.25-.43l.68-2.28Zm-14.68,5.94.67-2.27,3.77-12.68a3.33,3.33,0,0,1,1.88-2.14,4.62,4.62,0,0,1,3.1-.11h0a5,5,0,0,1,2.92,2.25,3.38,3.38,0,0,1,.34,2.71l-3.69,12.43-.67,2.27a.36.36,0,0,1-.44.24l-7.67-2.28A.35.35,0,0,1,192.43,268.86Zm-13.94-.15c.22-.73.46-1.54.71-2.39.33-1.11.69-2.3,1.07-3.54.75-2.45,1.55-5.08,2.34-7.61a3.21,3.21,0,0,1,1.65-2,4.69,4.69,0,0,1,3.35-.2,4.94,4.94,0,0,1,2.93,2.26,3.31,3.31,0,0,1,.34,2.7L188,267.55a.35.35,0,0,1-.43.24l-.37-.12a7.63,7.63,0,0,0-4.39,0l-.41.14c-1.37.53-2.52,1-3.47,1.36A.35.35,0,0,1,178.49,268.71Zm40,32.51L215.61,311a3,3,0,0,1-.83,1.32c-2.77,2.54-10.26,10-12.5,18.37a4.32,4.32,0,0,1-2.28,2.84c-4.4,2.29-13.41-.13-16.52-1.26l-.09,0-.1,0c-3.21-.8-12.07-3.79-14.44-7.94a3.64,3.64,0,0,1-.4-3,34.84,34.84,0,0,0,.1-20.13.41.41,0,0,1,0-.19l5.83-23.05,0-.1,2.07-3.18.34-.5h0c.73-.37,3.05-1.35,6.93-2.85a3.36,3.36,0,0,1,2.17-.07l16,4.75a.35.35,0,0,1,.24.46,16.4,16.4,0,0,1-2.25,4.08c-.24.3-.49.59-.76.87a7.77,7.77,0,0,1-1.17,1,6.08,6.08,0,0,1-.6.34,5.15,5.15,0,0,1-3.93.26l-8.19-2.43a.34.34,0,0,0-.43.24l-3,10.06a.34.34,0,0,0,.22.43l1.39.46c.33.11,8.5,3.07,7.11,15.84a.35.35,0,0,0,.31.38l3,.36a.35.35,0,0,0,.39-.32c1.3-11.8-4.61-17-7.75-18.86a.33.33,0,0,1-.16-.39l1-3.38a.35.35,0,0,1,.44-.23l4.65,1.38a9.22,9.22,0,0,0,4.61.23.35.35,0,0,1,.41.23,6.83,6.83,0,0,0,.68,1.48,8.74,8.74,0,0,0,5,3.86l0,0a8.5,8.5,0,0,0,4.5.09.36.36,0,0,1,.45.37,7.09,7.09,0,0,0,1,3.95,8.66,8.66,0,0,0,5,3.86h0a8.47,8.47,0,0,0,3.89.24A.35.35,0,0,1,218.5,301.22Zm6.16-21.41-2.48,8.33-1.05,3.54-.91,3.07a3.27,3.27,0,0,1-1.87,2.14,4.65,4.65,0,0,1-3.11.11h0a5.06,5.06,0,0,1-2.91-2.25A3.34,3.34,0,0,1,212,292l.79-2.66.17.05,5.36-18.05a3.32,3.32,0,0,1,1.87-2.14,4.65,4.65,0,0,1,3.11-.11,5.17,5.17,0,0,1,2.94,2.26,3.38,3.38,0,0,1,.35,2.71l-.8,2.66-.17-.05Zm20.56,10.42a5.15,5.15,0,0,1-2.27,2.95,3.34,3.34,0,0,1-2.7.32l-14.35-4.26,2.47-8.33,14.6,4.34a3.23,3.23,0,0,1,2.13,1.87A4.59,4.59,0,0,1,245.22,290.23Z"/><g class="cls-6"><path class="cls-1" d="M148.32,249.86l-.06.19.36-.1Z"/><path class="cls-1" d="M141.93,271.39l-.05.17.26.08A2.52,2.52,0,0,1,141.93,271.39Z"/></g><g class="cls-6"><path class="cls-1" d="M148.32,249.86l-.06.19.36-.1Z"/></g><path class="cls-1" d="M168.7,259.35a17,17,0,1,0-4.58,15.4l6.72,2,.12-.46,1.84-2.81-6.23-1.84a17.48,17.48,0,0,0,1.78-4,17.29,17.29,0,0,0,.69-4.33l6.62,2c.05-.15.09-.3.13-.43.31-1,.63-2.07,1-3.1Zm-3.88-.26a11.83,11.83,0,0,1,.38,1.69l-.81-.24Zm-4-6.32a12.38,12.38,0,0,1,1.15,1.14l-1.37-.41Zm2.62,3.11c.19.32.37.64.53,1l-1,3.27-4-1.2,1.19-4Zm-.86,5.65-1.19,4-4-1.18,1.19-4ZM155.72,250l.13,0a13.15,13.15,0,0,1,3.7,1.76l-.38,1.28-4-1.19Zm3,4.5-1.18,4-4-1.19,1.19-4Zm-12.22,6.63,1.18-4,4,1.19-1.19,4Zm3.58,2.6-1.19,4-4-1.2,1.2-4Zm1.41.42,4,1.19-1.2,4-4-1.2Zm.43-1.42,1.19-4,4,1.19-1.19,4Zm-2-13.07a12.71,12.71,0,0,1,4.35,0l-.53,1.79-4-1.19Zm-1.32.29-.25.08-.08,0,0-.19Zm.72,1.74,4,1.2-1.19,4-4-1.19ZM143,253a13.28,13.28,0,0,1,3.31-2.23l1.58.47-1.2,4-4-1.19Zm3.28,3.66-1.18,4-4-1.19,1.18-4Zm-1.61,5.42-1.19,4-4-1.18,1.2-4Zm-4.12-6,.3-1,.3.09a9.19,9.19,0,0,0-.6.93l-.89,3-.36-.1A13.27,13.27,0,0,1,140.56,256.11ZM139,260.42l.28.1-.47,1.59A12.31,12.31,0,0,1,139,260.42Zm.3,6h0l-.21-.06.1-.35a1.6,1.6,0,0,0,.05.21l.06.2,3.8,1.12-1.14,3.85A13.23,13.23,0,0,1,139.27,266.42Zm2.86,5.22-.25-.08.05-.17.1.13.11.12Zm4.63,3.34a11.53,11.53,0,0,1-1.84-1l-2-.6.23-.79a11.83,11.83,0,0,0,1.82,1.39l2,.58Zm-3.47-3,1.19-4,4,1.19-1.19,4Zm9.05,4.1v0l0,.09h0l-.37-.11a12.94,12.94,0,0,1-3.66-.55l-.12,0,.15-.49,3.63,1.08h.41Zm.38-1.31-4-1.19,1.19-4,4,1.2Zm6.06-.52a13.1,13.1,0,0,1-3.23,1.36l-1.41-.42,1.19-4,4,1.19Zm1.95-1.4,0-.06,0,0Zm-1-1.89-4-1.2,1.19-4,4,1.2Zm2.23.66-.82-.24,1.19-4,1.95.59A13.06,13.06,0,0,1,162,271.63Zm2.83-5.07-2-.6,1.19-4,1.38.41A13.21,13.21,0,0,1,164.82,266.56Z"/><g class="cls-6"><path class="cls-1" d="M139.16,266l-.1.35.21.06C139.23,266.29,139.19,266.15,139.16,266Z"/></g><g class="cls-6"><path class="cls-1" d="M151.93,276.09l.37.11,0-.12Z"/></g><path class="cls-1" d="M199.66,342.41a1.82,1.82,0,0,0-2,.78,4.31,4.31,0,0,1-1.8,1.65c-4.39,2.3-13.4-.12-16.51-1.25l-.09,0h-.09c-3.23-.81-12.08-3.8-14.46-8a3.87,3.87,0,0,1-.55-1.79,1.8,1.8,0,0,0-1.31-1.64h0a1.84,1.84,0,0,0-2.37,1.77,7.43,7.43,0,0,0,1.05,3.5c3.44,6,14.63,9.14,16.58,9.64l.16.05c.29.1.92.32,1.79.57,3.82,1.14,12.3,3.15,17.52.43a8,8,0,0,0,3.2-2.93,1.86,1.86,0,0,0-1.08-2.78Z"/></svg>